<svg width="180" height="180" viewBox="0 0 180 180" fill="none" xmlns="http://www.w3.org/2000/svg" role="img" aria-labelledby="title desc">
  <title id="title">Game Account Select icon</title>
  <desc id="desc">A small anime-game style icon with a star lens and account card.</desc>
  <defs>
    <linearGradient id="bg" x1="30" y1="20" x2="150" y2="160" gradientUnits="userSpaceOnUse">
      <stop stop-color="#58D6B5"/>
      <stop offset="0.48" stop-color="#F0C96A"/>
      <stop offset="1" stop-color="#E27D60"/>
    </linearGradient>
    <linearGradient id="card" x1="48" y1="48" x2="132" y2="132" gradientUnits="userSpaceOnUse">
      <stop stop-color="#18233A"/>
      <stop offset="1" stop-color="#0C1322"/>
    </linearGradient>
    <filter id="shadow" x="-30%" y="-30%" width="160%" height="160%" color-interpolation-filters="sRGB">
      <feDropShadow dx="0" dy="12" stdDeviation="16" flood-color="#000000" flood-opacity="0.28"/>
    </filter>
  </defs>
  <rect x="14" y="14" width="152" height="152" rx="42" fill="#0B1020"/>
  <rect x="18" y="18" width="144" height="144" rx="38" stroke="url(#bg)" stroke-width="4"/>
  <g filter="url(#shadow)">
    <rect x="47" y="52" width="86" height="78" rx="18" fill="url(#card)" stroke="#FFFFFF" stroke-opacity="0.16"/>
    <circle cx="76" cy="82" r="14" fill="#58D6B5" fill-opacity="0.24" stroke="#9BE6D2" stroke-width="3"/>
    <path d="M76 67L80 78L92 78.4L82.5 85.2L85.8 96.6L76 90L66.2 96.6L69.5 85.2L60 78.4L72 78L76 67Z" fill="#F8D987"/>
    <path d="M104 72H118M104 88H122M62 112H118" stroke="#CAD5E2" stroke-width="5" stroke-linecap="round"/>
    <path d="M128 125L145 142" stroke="#F3AA96" stroke-width="9" stroke-linecap="round"/>
    <circle cx="115" cy="112" r="24" fill="#101624" fill-opacity="0.72" stroke="#E27D60" stroke-width="7"/>
  </g>
  <path d="M44 38C50 30 58 27 68 28M136 40C126 30 116 27 104 29" stroke="#FFFFFF" stroke-opacity="0.28" stroke-width="4" stroke-linecap="round"/>
</svg>
