<svg width="1600" height="520" viewBox="0 0 1600 520" fill="none" xmlns="http://www.w3.org/2000/svg" role="img" aria-labelledby="title desc">
  <title id="title">Game Account Select 中文横幅</title>
  <desc id="desc">面向游戏账号购买决策的中文 README 横幅。</desc>
  <defs>
    <linearGradient id="bg" x1="0" y1="0" x2="1600" y2="520" gradientUnits="userSpaceOnUse">
      <stop offset="0" stop-color="#08121F"/>
      <stop offset="0.44" stop-color="#151A2E"/>
      <stop offset="1" stop-color="#251719"/>
    </linearGradient>
    <linearGradient id="signal" x1="180" y1="112" x2="1390" y2="402" gradientUnits="userSpaceOnUse">
      <stop stop-color="#58D6B5"/>
      <stop offset="0.5" stop-color="#F0C96A"/>
      <stop offset="1" stop-color="#E27D60"/>
    </linearGradient>
    <filter id="shadow" x="-20%" y="-20%" width="140%" height="140%" color-interpolation-filters="sRGB">
      <feDropShadow dx="0" dy="18" stdDeviation="28" flood-color="#000000" flood-opacity="0.36"/>
    </filter>
  </defs>
  <rect width="1600" height="520" rx="36" fill="url(#bg)"/>
  <g opacity="0.17">
    <path d="M140 92H1460M140 428H1460M220 60V460M1380 60V460" stroke="#FFFFFF"/>
    <path d="M360 60V460M500 60V460M640 60V460M780 60V460M920 60V460M1060 60V460M1200 60V460" stroke="#FFFFFF" stroke-opacity="0.32"/>
  </g>
  <path d="M120 398C332 158 522 420 728 245C922 80 1042 356 1262 198C1368 122 1440 142 1500 176" stroke="url(#signal)" stroke-width="6" stroke-linecap="round" opacity="0.9"/>
  <path d="M118 438C350 258 542 458 760 306C942 178 1098 388 1332 264C1414 220 1470 226 1510 244" stroke="#FFFFFF" stroke-width="2" stroke-linecap="round" opacity="0.18"/>
  <g filter="url(#shadow)">
    <rect x="170" y="116" width="1260" height="288" rx="24" fill="#101624" fill-opacity="0.8" stroke="#FFFFFF" stroke-opacity="0.12"/>
    <rect x="205" y="150" width="146" height="34" rx="17" fill="#58D6B5" fill-opacity="0.14" stroke="#58D6B5" stroke-opacity="0.55"/>
    <text x="232" y="173" fill="#9BE6D2" font-family="Inter, ui-sans-serif, system-ui, -apple-system, BlinkMacSystemFont, 'Segoe UI', sans-serif" font-size="15" font-weight="700" letter-spacing="1.5">SKILL PACK</text>
    <text x="205" y="242" fill="#F8FAFC" font-family="Inter, ui-sans-serif, system-ui, -apple-system, BlinkMacSystemFont, 'Segoe UI', sans-serif" font-size="66" font-weight="780">游戏账号筛选助手</text>
    <text x="210" y="300" fill="#CAD5E2" font-family="Inter, ui-sans-serif, system-ui, -apple-system, BlinkMacSystemFont, 'Segoe UI', sans-serif" font-size="25" font-weight="460">用社区攻略共识、账号资产结构和风险证据做购买前判断</text>
    <g transform="translate(210 338)">
      <rect width="150" height="42" rx="21" fill="#58D6B5" fill-opacity="0.13" stroke="#58D6B5" stroke-opacity="0.52"/>
      <text x="22" y="27" fill="#9BE6D2" font-family="Inter, ui-sans-serif, system-ui" font-size="16" font-weight="650">社区证据</text>
    </g>
    <g transform="translate(382 338)">
      <rect width="150" height="42" rx="21" fill="#F0C96A" fill-opacity="0.13" stroke="#F0C96A" stroke-opacity="0.52"/>
      <text x="22" y="27" fill="#F8D987" font-family="Inter, ui-sans-serif, system-ui" font-size="16" font-weight="650">账号估值</text>
    </g>
    <g transform="translate(554 338)">
      <rect width="150" height="42" rx="21" fill="#E27D60" fill-opacity="0.13" stroke="#E27D60" stroke-opacity="0.52"/>
      <text x="22" y="27" fill="#F3AA96" font-family="Inter, ui-sans-serif, system-ui" font-size="16" font-weight="650">风险提示</text>
    </g>
  </g>
  <g transform="translate(1100 160)">
    <rect x="0" y="0" width="270" height="196" rx="18" fill="#0D1422" stroke="#FFFFFF" stroke-opacity="0.14"/>
    <text x="28" y="46" fill="#F8FAFC" font-family="Inter, ui-sans-serif, system-ui" font-size="18" font-weight="760">购买决策信号</text>
    <circle cx="42" cy="80" r="5" fill="#58D6B5"/>
    <text x="60" y="86" fill="#CAD5E2" font-family="Inter, ui-sans-serif, system-ui" font-size="15">角色 / 武器 / 资源</text>
    <circle cx="42" cy="114" r="5" fill="#F0C96A"/>
    <text x="60" y="120" fill="#CAD5E2" font-family="Inter, ui-sans-serif, system-ui" font-size="15">版本环境和攻略共识</text>
    <circle cx="42" cy="148" r="5" fill="#E27D60"/>
    <text x="60" y="154" fill="#CAD5E2" font-family="Inter, ui-sans-serif, system-ui" font-size="15">绑定 / 找回 / 验号风险</text>
  </g>
</svg>
