<svg width="1600" height="520" viewBox="0 0 1600 520" fill="none" xmlns="http://www.w3.org/2000/svg" role="img" aria-labelledby="title desc">
  <title id="title">Game Account Select</title>
  <desc id="desc">A dark editorial banner for a game account evaluation skill pack.</desc>
  <defs>
    <linearGradient id="bg" x1="0" y1="0" x2="1600" y2="520" gradientUnits="userSpaceOnUse">
      <stop offset="0" stop-color="#0B1020"/>
      <stop offset="0.45" stop-color="#151A2E"/>
      <stop offset="1" stop-color="#221B15"/>
    </linearGradient>
    <linearGradient id="line" x1="180" y1="112" x2="1390" y2="402" gradientUnits="userSpaceOnUse">
      <stop stop-color="#58D6B5"/>
      <stop offset="0.52" stop-color="#F0C96A"/>
      <stop offset="1" stop-color="#E27D60"/>
    </linearGradient>
    <filter id="shadow" x="-20%" y="-20%" width="140%" height="140%" color-interpolation-filters="sRGB">
      <feDropShadow dx="0" dy="18" stdDeviation="28" flood-color="#000000" flood-opacity="0.36"/>
    </filter>
  </defs>
  <rect width="1600" height="520" rx="36" fill="url(#bg)"/>
  <path d="M120 400 C330 160 520 420 725 245 C920 80 1040 355 1260 198 C1368 121 1440 142 1500 176" stroke="url(#line)" stroke-width="6" stroke-linecap="round" opacity="0.9"/>
  <path d="M120 438 C350 258 542 458 760 306 C942 178 1098 388 1332 264 C1414 220 1470 226 1510 244" stroke="#FFFFFF" stroke-width="2" stroke-linecap="round" opacity="0.18"/>
  <g opacity="0.18">
    <path d="M140 92H1460" stroke="#FFFFFF"/>
    <path d="M140 428H1460" stroke="#FFFFFF"/>
    <path d="M220 60V460" stroke="#FFFFFF"/>
    <path d="M1380 60V460" stroke="#FFFFFF"/>
  </g>
  <g filter="url(#shadow)">
    <rect x="170" y="116" width="1260" height="288" rx="24" fill="#101624" fill-opacity="0.78" stroke="#FFFFFF" stroke-opacity="0.12"/>
    <rect x="205" y="150" width="154" height="34" rx="17" fill="#58D6B5" fill-opacity="0.14" stroke="#58D6B5" stroke-opacity="0.55"/>
    <text x="232" y="173" fill="#9BE6D2" font-family="Inter, ui-sans-serif, system-ui, -apple-system, BlinkMacSystemFont, 'Segoe UI', sans-serif" font-size="15" font-weight="700" letter-spacing="1.5">SKILL PACK</text>
    <text x="205" y="246" fill="#F8FAFC" font-family="Inter, ui-sans-serif, system-ui, -apple-system, BlinkMacSystemFont, 'Segoe UI', sans-serif" font-size="70" font-weight="780" letter-spacing="0">Game Account Select</text>
    <text x="210" y="302" fill="#CAD5E2" font-family="Inter, ui-sans-serif, system-ui, -apple-system, BlinkMacSystemFont, 'Segoe UI', sans-serif" font-size="25" font-weight="460">Community-grounded account valuation skills for game buyers</text>
    <g transform="translate(210 338)">
      <rect width="178" height="42" rx="21" fill="#F0C96A" fill-opacity="0.12" stroke="#F0C96A" stroke-opacity="0.46"/>
      <text x="22" y="27" fill="#F8D987" font-family="Inter, ui-sans-serif, system-ui" font-size="16" font-weight="650">preflight first</text>
    </g>
    <g transform="translate(410 338)">
      <rect width="192" height="42" rx="21" fill="#58D6B5" fill-opacity="0.12" stroke="#58D6B5" stroke-opacity="0.46"/>
      <text x="22" y="27" fill="#9BE6D2" font-family="Inter, ui-sans-serif, system-ui" font-size="16" font-weight="650">generate skills</text>
    </g>
    <g transform="translate(624 338)">
      <rect width="198" height="42" rx="21" fill="#E27D60" fill-opacity="0.13" stroke="#E27D60" stroke-opacity="0.52"/>
      <text x="22" y="27" fill="#F3AA96" font-family="Inter, ui-sans-serif, system-ui" font-size="16" font-weight="650">evaluate quality</text>
    </g>
  </g>
  <g transform="translate(1100 162)" opacity="0.95">
    <rect x="0" y="0" width="270" height="190" rx="18" fill="#0D1422" stroke="#FFFFFF" stroke-opacity="0.14"/>
    <text x="28" y="48" fill="#F8FAFC" font-family="Inter, ui-sans-serif, system-ui" font-size="18" font-weight="760">Evaluation Loop</text>
    <circle cx="42" cy="82" r="5" fill="#58D6B5"/>
    <text x="60" y="88" fill="#CAD5E2" font-family="Inter, ui-sans-serif, system-ui" font-size="15">community evidence</text>
    <circle cx="42" cy="116" r="5" fill="#F0C96A"/>
    <text x="60" y="122" fill="#CAD5E2" font-family="Inter, ui-sans-serif, system-ui" font-size="15">risk and missing fields</text>
    <circle cx="42" cy="150" r="5" fill="#E27D60"/>
    <text x="60" y="156" fill="#CAD5E2" font-family="Inter, ui-sans-serif, system-ui" font-size="15">validation fixtures</text>
  </g>
</svg>
